<svg width="52" height="48" viewBox="0 0 52 48" fill="none" xmlns="http://www.w3.org/2000/svg">
<circle cx="24" cy="24" r="24" fill="#E97171"/>
<g filter="url(#filter0_d_117_424)">
<mask id="path-2-outside-1_117_424" maskUnits="userSpaceOnUse" x="5" y="17" width="43" height="15" fill="black">
<rect fill="white" x="5" y="17" width="43" height="15"/>
<path d="M12.968 23.44V24.976H6.392V23.44H12.968ZM15.2874 21.216C15.3514 20.224 15.73 19.4507 16.4234 18.896C17.1274 18.3413 18.0234 18.064 19.1114 18.064C19.858 18.064 20.5034 18.1973 21.0474 18.464C21.5914 18.7307 22.002 19.0933 22.2794 19.552C22.5567 20.0107 22.6954 20.528 22.6954 21.104C22.6954 21.7653 22.5194 22.3307 22.1674 22.8C21.8154 23.2693 21.394 23.584 20.9034 23.744V23.808C21.5327 24 22.0234 24.352 22.3754 24.864C22.7274 25.3653 22.9034 26.0107 22.9034 26.8C22.9034 27.4293 22.7594 27.9893 22.4714 28.48C22.1834 28.9707 21.7567 29.36 21.1914 29.648C20.626 29.9253 19.9487 30.064 19.1594 30.064C18.0074 30.064 17.058 29.7707 16.3114 29.184C15.5754 28.5867 15.1807 27.7333 15.1274 26.624H16.8874C16.93 27.1893 17.1487 27.6533 17.5434 28.016C17.938 28.368 18.4714 28.544 19.1434 28.544C19.794 28.544 20.2954 28.368 20.6474 28.016C20.9994 27.6533 21.1754 27.1893 21.1754 26.624C21.1754 25.8773 20.9354 25.3493 20.4554 25.04C19.986 24.72 19.2607 24.56 18.2794 24.56H17.8634V23.056H18.2954C19.1594 23.0453 19.8154 22.9013 20.2634 22.624C20.722 22.3467 20.9514 21.9093 20.9514 21.312C20.9514 20.8 20.786 20.3947 20.4554 20.096C20.1247 19.7867 19.6554 19.632 19.0474 19.632C18.45 19.632 17.986 19.7867 17.6554 20.096C17.3247 20.3947 17.1274 20.768 17.0634 21.216H15.2874ZM24.8194 24.016C24.8194 22.1707 25.1287 20.7307 25.7474 19.696C26.3767 18.6507 27.454 18.128 28.9794 18.128C30.5047 18.128 31.5767 18.6507 32.1954 19.696C32.8247 20.7307 33.1394 22.1707 33.1394 24.016C33.1394 25.8827 32.8247 27.344 32.1954 28.4C31.5767 29.4453 30.5047 29.968 28.9794 29.968C27.454 29.968 26.3767 29.4453 25.7474 28.4C25.1287 27.344 24.8194 25.8827 24.8194 24.016ZM31.3474 24.016C31.3474 23.152 31.2887 22.4213 31.1714 21.824C31.0647 21.2267 30.8407 20.7413 30.4994 20.368C30.158 19.984 29.6514 19.792 28.9794 19.792C28.3074 19.792 27.8007 19.984 27.4594 20.368C27.118 20.7413 26.8887 21.2267 26.7714 21.824C26.6647 22.4213 26.6114 23.152 26.6114 24.016C26.6114 24.912 26.6647 25.664 26.7714 26.272C26.878 26.88 27.102 27.3707 27.4434 27.744C27.7954 28.1173 28.3074 28.304 28.9794 28.304C29.6514 28.304 30.158 28.1173 30.4994 27.744C30.8514 27.3707 31.0807 26.88 31.1874 26.272C31.294 25.664 31.3474 24.912 31.3474 24.016ZM34.7814 21.152C34.7814 20.3733 35.0054 19.7653 35.4534 19.328C35.912 18.88 36.4987 18.656 37.2134 18.656C37.928 18.656 38.5094 18.88 38.9574 19.328C39.416 19.7653 39.6454 20.3733 39.6454 21.152C39.6454 21.9307 39.416 22.544 38.9574 22.992C38.5094 23.44 37.928 23.664 37.2134 23.664C36.4987 23.664 35.912 23.44 35.4534 22.992C35.0054 22.544 34.7814 21.9307 34.7814 21.152ZM44.5414 18.864L38.1574 30H36.3654L42.7494 18.864H44.5414ZM37.2134 19.76C36.5414 19.76 36.2054 20.224 36.2054 21.152C36.2054 22.0907 36.5414 22.56 37.2134 22.56C37.5334 22.56 37.7787 22.448 37.9494 22.224C38.1307 21.9893 38.2214 21.632 38.2214 21.152C38.2214 20.224 37.8854 19.76 37.2134 19.76ZM41.2934 27.696C41.2934 26.9173 41.5174 26.3093 41.9654 25.872C42.424 25.424 43.0107 25.2 43.7254 25.2C44.4294 25.2 45.0054 25.424 45.4534 25.872C45.912 26.3093 46.1414 26.9173 46.1414 27.696C46.1414 28.4747 45.912 29.088 45.4534 29.536C45.0054 29.984 44.4294 30.208 43.7254 30.208C43.0107 30.208 42.424 29.984 41.9654 29.536C41.5174 29.088 41.2934 28.4747 41.2934 27.696ZM43.7094 26.304C43.0374 26.304 42.7014 26.768 42.7014 27.696C42.7014 28.624 43.0374 29.088 43.7094 29.088C44.3814 29.088 44.7174 28.624 44.7174 27.696C44.7174 26.768 44.3814 26.304 43.7094 26.304Z"/>
</mask>
<path d="M12.968 23.44V24.976H6.392V23.44H12.968ZM15.2874 21.216C15.3514 20.224 15.73 19.4507 16.4234 18.896C17.1274 18.3413 18.0234 18.064 19.1114 18.064C19.858 18.064 20.5034 18.1973 21.0474 18.464C21.5914 18.7307 22.002 19.0933 22.2794 19.552C22.5567 20.0107 22.6954 20.528 22.6954 21.104C22.6954 21.7653 22.5194 22.3307 22.1674 22.8C21.8154 23.2693 21.394 23.584 20.9034 23.744V23.808C21.5327 24 22.0234 24.352 22.3754 24.864C22.7274 25.3653 22.9034 26.0107 22.9034 26.8C22.9034 27.4293 22.7594 27.9893 22.4714 28.48C22.1834 28.9707 21.7567 29.36 21.1914 29.648C20.626 29.9253 19.9487 30.064 19.1594 30.064C18.0074 30.064 17.058 29.7707 16.3114 29.184C15.5754 28.5867 15.1807 27.7333 15.1274 26.624H16.8874C16.93 27.1893 17.1487 27.6533 17.5434 28.016C17.938 28.368 18.4714 28.544 19.1434 28.544C19.794 28.544 20.2954 28.368 20.6474 28.016C20.9994 27.6533 21.1754 27.1893 21.1754 26.624C21.1754 25.8773 20.9354 25.3493 20.4554 25.04C19.986 24.72 19.2607 24.56 18.2794 24.56H17.8634V23.056H18.2954C19.1594 23.0453 19.8154 22.9013 20.2634 22.624C20.722 22.3467 20.9514 21.9093 20.9514 21.312C20.9514 20.8 20.786 20.3947 20.4554 20.096C20.1247 19.7867 19.6554 19.632 19.0474 19.632C18.45 19.632 17.986 19.7867 17.6554 20.096C17.3247 20.3947 17.1274 20.768 17.0634 21.216H15.2874ZM24.8194 24.016C24.8194 22.1707 25.1287 20.7307 25.7474 19.696C26.3767 18.6507 27.454 18.128 28.9794 18.128C30.5047 18.128 31.5767 18.6507 32.1954 19.696C32.8247 20.7307 33.1394 22.1707 33.1394 24.016C33.1394 25.8827 32.8247 27.344 32.1954 28.4C31.5767 29.4453 30.5047 29.968 28.9794 29.968C27.454 29.968 26.3767 29.4453 25.7474 28.4C25.1287 27.344 24.8194 25.8827 24.8194 24.016ZM31.3474 24.016C31.3474 23.152 31.2887 22.4213 31.1714 21.824C31.0647 21.2267 30.8407 20.7413 30.4994 20.368C30.158 19.984 29.6514 19.792 28.9794 19.792C28.3074 19.792 27.8007 19.984 27.4594 20.368C27.118 20.7413 26.8887 21.2267 26.7714 21.824C26.6647 22.4213 26.6114 23.152 26.6114 24.016C26.6114 24.912 26.6647 25.664 26.7714 26.272C26.878 26.88 27.102 27.3707 27.4434 27.744C27.7954 28.1173 28.3074 28.304 28.9794 28.304C29.6514 28.304 30.158 28.1173 30.4994 27.744C30.8514 27.3707 31.0807 26.88 31.1874 26.272C31.294 25.664 31.3474 24.912 31.3474 24.016ZM34.7814 21.152C34.7814 20.3733 35.0054 19.7653 35.4534 19.328C35.912 18.88 36.4987 18.656 37.2134 18.656C37.928 18.656 38.5094 18.88 38.9574 19.328C39.416 19.7653 39.6454 20.3733 39.6454 21.152C39.6454 21.9307 39.416 22.544 38.9574 22.992C38.5094 23.44 37.928 23.664 37.2134 23.664C36.4987 23.664 35.912 23.44 35.4534 22.992C35.0054 22.544 34.7814 21.9307 34.7814 21.152ZM44.5414 18.864L38.1574 30H36.3654L42.7494 18.864H44.5414ZM37.2134 19.76C36.5414 19.76 36.2054 20.224 36.2054 21.152C36.2054 22.0907 36.5414 22.56 37.2134 22.56C37.5334 22.56 37.7787 22.448 37.9494 22.224C38.1307 21.9893 38.2214 21.632 38.2214 21.152C38.2214 20.224 37.8854 19.76 37.2134 19.76ZM41.2934 27.696C41.2934 26.9173 41.5174 26.3093 41.9654 25.872C42.424 25.424 43.0107 25.2 43.7254 25.2C44.4294 25.2 45.0054 25.424 45.4534 25.872C45.912 26.3093 46.1414 26.9173 46.1414 27.696C46.1414 28.4747 45.912 29.088 45.4534 29.536C45.0054 29.984 44.4294 30.208 43.7254 30.208C43.0107 30.208 42.424 29.984 41.9654 29.536C41.5174 29.088 41.2934 28.4747 41.2934 27.696ZM43.7094 26.304C43.0374 26.304 42.7014 26.768 42.7014 27.696C42.7014 28.624 43.0374 29.088 43.7094 29.088C44.3814 29.088 44.7174 28.624 44.7174 27.696C44.7174 26.768 44.3814 26.304 43.7094 26.304Z" fill="white"/>
<path d="M12.968 23.44H13.968V22.44H12.968V23.44ZM12.968 24.976V25.976H13.968V24.976H12.968ZM6.392 24.976H5.392V25.976H6.392V24.976ZM6.392 23.44V22.44H5.392V23.44H6.392ZM11.968 23.44V24.976H13.968V23.44H11.968ZM12.968 23.976H6.392V25.976H12.968V23.976ZM7.392 24.976V23.44H5.392V24.976H7.392ZM6.392 24.44H12.968V22.44H6.392V24.44ZM15.2874 21.216L14.2894 21.1516L14.2208 22.216H15.2874V21.216ZM16.4234 18.896L15.8045 18.1105L15.7987 18.1151L16.4234 18.896ZM21.0474 18.464L20.6072 19.3619L20.6072 19.3619L21.0474 18.464ZM22.2794 19.552L23.1351 19.0346V19.0346L22.2794 19.552ZM22.1674 22.8L22.9674 23.4L22.1674 22.8ZM20.9034 23.744L20.5934 22.7933L19.9034 23.0183V23.744H20.9034ZM20.9034 23.808H19.9034V24.5484L20.6116 24.7645L20.9034 23.808ZM22.3754 24.864L21.5513 25.4306L21.557 25.4386L22.3754 24.864ZM22.4714 28.48L21.609 27.9738L22.4714 28.48ZM21.1914 29.648L21.6318 30.5458L21.6386 30.5425L21.6453 30.539L21.1914 29.648ZM16.3114 29.184L15.6812 29.9605L15.6873 29.9654L15.6936 29.9703L16.3114 29.184ZM15.1274 26.624V25.624H14.0781L14.1285 26.672L15.1274 26.624ZM16.8874 26.624L17.8845 26.5487L17.8147 25.624H16.8874V26.624ZM17.5434 28.016L16.8667 28.7523L16.8722 28.7574L16.8778 28.7623L17.5434 28.016ZM20.6474 28.016L21.3545 28.7231L21.3598 28.7178L21.365 28.7125L20.6474 28.016ZM20.4554 25.04L19.892 25.8662L19.9028 25.8735L19.9137 25.8806L20.4554 25.04ZM17.8634 24.56H16.8634V25.56H17.8634V24.56ZM17.8634 23.056V22.056H16.8634V23.056H17.8634ZM18.2954 23.056V24.0561L18.3077 24.0559L18.2954 23.056ZM20.2634 22.624L19.7459 21.7682L19.737 21.7737L20.2634 22.624ZM20.4554 20.096L19.7722 20.8263L19.7786 20.8322L19.7851 20.8381L20.4554 20.096ZM17.6554 20.096L18.3257 20.8381L18.3321 20.8322L18.3385 20.8263L17.6554 20.096ZM17.0634 21.216V22.216H17.9307L18.0533 21.3574L17.0634 21.216ZM16.2853 21.2804C16.3336 20.5318 16.6019 20.0338 17.0481 19.6769L15.7987 18.1151C14.8582 18.8675 14.3692 19.9162 14.2894 21.1516L16.2853 21.2804ZM17.0422 19.6815C17.5346 19.2936 18.1984 19.064 19.1114 19.064V17.064C17.8484 17.064 16.7202 17.3891 15.8045 18.1105L17.0422 19.6815ZM19.1114 19.064C19.7402 19.064 20.2284 19.1762 20.6072 19.3619L21.4875 17.5661C20.7784 17.2185 19.9759 17.064 19.1114 17.064V19.064ZM20.6072 19.3619C21.0022 19.5555 21.258 19.7955 21.4236 20.0694L23.1351 19.0346C22.7461 18.3912 22.1806 17.9058 21.4875 17.5661L20.6072 19.3619ZM21.4236 20.0694C21.5995 20.3603 21.6954 20.6963 21.6954 21.104H23.6954C23.6954 20.3597 23.5139 19.661 23.1351 19.0346L21.4236 20.0694ZM21.6954 21.104C21.6954 21.5778 21.5732 21.9255 21.3674 22.2L22.9674 23.4C23.4655 22.7358 23.6954 21.9528 23.6954 21.104H21.6954ZM21.3674 22.2C21.1213 22.5282 20.8625 22.7055 20.5934 22.7933L21.2134 24.6947C21.9256 24.4625 22.5095 24.0105 22.9674 23.4L21.3674 22.2ZM19.9034 23.744V23.808H21.9034V23.744H19.9034ZM20.6116 24.7645C21.0382 24.8946 21.3354 25.1165 21.5513 25.4305L23.1994 24.2975C22.7113 23.5875 22.0272 23.1054 21.1952 22.8515L20.6116 24.7645ZM21.557 25.4386C21.7608 25.729 21.9034 26.1571 21.9034 26.8H23.9034C23.9034 25.8642 23.6939 25.0017 23.1938 24.2894L21.557 25.4386ZM21.9034 26.8C21.9034 27.2708 21.7975 27.6525 21.609 27.9738L23.3338 28.9862C23.7212 28.3261 23.9034 27.5879 23.9034 26.8H21.9034ZM21.609 27.9738C21.4285 28.2813 21.1529 28.5453 20.7374 28.757L21.6453 30.539C22.3605 30.1747 22.9383 29.6601 23.3338 28.9862L21.609 27.9738ZM20.7509 28.7502C20.353 28.9454 19.8338 29.064 19.1594 29.064V31.064C20.0637 31.064 20.8991 30.9052 21.6318 30.5458L20.7509 28.7502ZM19.1594 29.064C18.1822 29.064 17.4645 28.8183 16.9292 28.3977L15.6936 29.9703C16.6516 30.723 17.8325 31.064 19.1594 31.064V29.064ZM16.9415 28.4075C16.465 28.0207 16.1685 27.4547 16.1262 26.576L14.1285 26.672C14.193 28.012 14.6858 29.1526 15.6812 29.9605L16.9415 28.4075ZM15.1274 27.624H16.8874V25.624H15.1274V27.624ZM15.8902 26.6993C15.9508 27.5016 16.2737 28.2074 16.8667 28.7523L18.22 27.2797C18.0237 27.0993 17.9093 26.8771 17.8845 26.5487L15.8902 26.6993ZM16.8778 28.7623C17.5011 29.3182 18.2945 29.544 19.1434 29.544V27.544C18.6482 27.544 18.375 27.4178 18.209 27.2697L16.8778 28.7623ZM19.1434 29.544C19.9745 29.544 20.7625 29.3151 21.3545 28.7231L19.9403 27.3089C19.8282 27.4209 19.6136 27.544 19.1434 27.544V29.544ZM21.365 28.7125C21.9202 28.1404 22.1754 27.4158 22.1754 26.624H20.1754C20.1754 26.9628 20.0786 27.1662 19.9298 27.3195L21.365 28.7125ZM22.1754 26.624C22.1754 25.6549 21.8491 24.7485 20.9971 24.1994L19.9137 25.8806C20.0216 25.9501 20.1754 26.0998 20.1754 26.624H22.1754ZM21.0187 24.2138C20.3014 23.7247 19.332 23.56 18.2794 23.56V25.56C19.1894 25.56 19.6707 25.7153 19.892 25.8662L21.0187 24.2138ZM18.2794 23.56H17.8634V25.56H18.2794V23.56ZM18.8634 24.56V23.056H16.8634V24.56H18.8634ZM17.8634 24.056H18.2954V22.056H17.8634V24.056ZM18.3077 24.0559C19.2492 24.0443 20.1177 23.8903 20.7897 23.4743L19.737 21.7737C19.5131 21.9124 19.0695 22.0464 18.283 22.0561L18.3077 24.0559ZM20.7808 23.4797C21.5779 22.9978 21.9514 22.2114 21.9514 21.312H19.9514C19.9514 21.6073 19.8662 21.6956 19.746 21.7683L20.7808 23.4797ZM21.9514 21.312C21.9514 20.5636 21.6984 19.8712 21.1257 19.3539L19.7851 20.8381C19.8736 20.9181 19.9514 21.0364 19.9514 21.312H21.9514ZM21.1385 19.3657C20.5666 18.8307 19.8204 18.632 19.0474 18.632V20.632C19.4904 20.632 19.6828 20.7426 19.7722 20.8263L21.1385 19.3657ZM19.0474 18.632C18.2795 18.632 17.541 18.8336 16.9722 19.3657L18.3385 20.8263C18.431 20.7397 18.6206 20.632 19.0474 20.632V18.632ZM16.9851 19.3539C16.478 19.8119 16.1699 20.3991 16.0734 21.0746L18.0533 21.3574C18.0848 21.1369 18.1714 20.9774 18.3257 20.8381L16.9851 19.3539ZM17.0634 20.216H15.2874V22.216H17.0634V20.216ZM25.7474 19.696L24.8906 19.1802L24.8891 19.1828L25.7474 19.696ZM32.1954 19.696L31.3347 20.2054L31.341 20.2157L32.1954 19.696ZM32.1954 28.4L31.3364 27.8881L31.3348 27.8907L32.1954 28.4ZM25.7474 28.4L24.8845 28.9055L24.8907 28.9158L25.7474 28.4ZM31.1714 21.824L30.1869 21.9998L30.1885 22.0083L30.1901 22.0167L31.1714 21.824ZM30.4994 20.368L29.7519 21.0324L29.7613 21.0428L30.4994 20.368ZM27.4594 20.368L28.1975 21.0428L28.2068 21.0324L27.4594 20.368ZM26.7714 21.824L25.7901 21.6313L25.7885 21.6397L25.7869 21.6482L26.7714 21.824ZM26.7714 26.272L27.7563 26.0992L26.7714 26.272ZM27.4434 27.744L26.7053 28.4188L26.7105 28.4244L26.7158 28.43L27.4434 27.744ZM30.4994 27.744L29.7718 27.058L29.7665 27.0636L29.7613 27.0692L30.4994 27.744ZM31.1874 26.272L32.1723 26.4448L31.1874 26.272ZM25.8194 24.016C25.8194 22.263 26.1165 21.0273 26.6056 20.2092L24.8891 19.1828C24.1409 20.434 23.8194 22.0783 23.8194 24.016H25.8194ZM26.6041 20.2118C27.0057 19.5446 27.7034 19.128 28.9794 19.128V17.128C27.2047 17.128 25.7477 17.7567 24.8907 19.1802L26.6041 20.2118ZM28.9794 19.128C30.2559 19.128 30.9437 19.5445 31.3348 20.2053L33.056 19.1867C32.2097 17.7568 30.7535 17.128 28.9794 17.128V19.128ZM31.341 20.2157C31.8376 21.0322 32.1394 22.2652 32.1394 24.016H34.1394C34.1394 22.0761 33.8118 20.4292 33.0497 19.1763L31.341 20.2157ZM32.1394 24.016C32.1394 25.7888 31.8375 27.0472 31.3364 27.8881L33.0544 28.9119C33.812 27.6408 34.1394 25.9766 34.1394 24.016H32.1394ZM31.3348 27.8907C30.9437 28.5515 30.2559 28.968 28.9794 28.968V30.968C30.7535 30.968 32.2097 30.3392 33.056 28.9093L31.3348 27.8907ZM28.9794 28.968C27.7034 28.968 27.0057 28.5514 26.6041 27.8842L24.8907 28.9158C25.7477 30.3393 27.2047 30.968 28.9794 30.968V28.968ZM26.6102 27.8945C26.1166 27.052 25.8194 25.7909 25.8194 24.016H23.8194C23.8194 25.9744 24.1408 27.636 24.8845 28.9055L26.6102 27.8945ZM32.3474 24.016C32.3474 23.1118 32.2864 22.3123 32.1526 21.6313L30.1901 22.0167C30.291 22.5303 30.3474 23.1922 30.3474 24.016H32.3474ZM32.1558 21.6482C32.0226 20.9021 31.7299 20.2319 31.2374 19.6932L29.7613 21.0428C29.9515 21.2507 30.1068 21.5512 30.1869 21.9998L32.1558 21.6482ZM31.2468 19.7036C30.6615 19.0452 29.8438 18.792 28.9794 18.792V20.792C29.459 20.792 29.6546 20.9228 29.752 21.0324L31.2468 19.7036ZM28.9794 18.792C28.115 18.792 27.2973 19.0452 26.712 19.7036L28.2068 21.0324C28.3041 20.9228 28.4998 20.792 28.9794 20.792V18.792ZM26.7213 19.6932C26.2332 20.2271 25.9356 20.8908 25.7901 21.6313L27.7526 22.0167C27.8418 21.5626 28.0029 21.2555 28.1974 21.0428L26.7213 19.6932ZM25.7869 21.6482C25.6666 22.3222 25.6114 23.1156 25.6114 24.016H27.6114C27.6114 23.1884 27.6628 22.5205 27.7558 21.9998L25.7869 21.6482ZM25.6114 24.016C25.6114 24.9465 25.6664 25.7606 25.7864 26.4448L27.7563 26.0992C27.663 25.5674 27.6114 24.8775 27.6114 24.016H25.6114ZM25.7864 26.4448C25.9187 27.1987 26.2099 27.8769 26.7053 28.4188L28.1814 27.0692C27.9942 26.8645 27.8374 26.5613 27.7563 26.0992L25.7864 26.4448ZM26.7158 28.43C27.3104 29.0607 28.1215 29.304 28.9794 29.304V27.304C28.4933 27.304 28.2803 27.174 28.171 27.058L26.7158 28.43ZM28.9794 29.304C29.8354 29.304 30.6499 29.0613 31.2374 28.4188L29.7613 27.0692C29.6662 27.1733 29.4674 27.304 28.9794 27.304V29.304ZM31.227 28.43C31.7382 27.8878 32.0388 27.2058 32.1723 26.4448L30.2024 26.0992C30.1226 26.5542 29.9645 26.8536 29.7718 27.058L31.227 28.43ZM32.1723 26.4448C32.2924 25.7606 32.3474 24.9465 32.3474 24.016H30.3474C30.3474 24.8775 30.2957 25.5674 30.2024 26.0992L32.1723 26.4448ZM35.4534 19.328L36.1519 20.0436L36.1521 20.0434L35.4534 19.328ZM38.9574 19.328L38.2503 20.0351L38.2587 20.0435L38.2673 20.0517L38.9574 19.328ZM38.9574 22.992L38.2586 22.2766L38.2503 22.2849L38.9574 22.992ZM35.4534 22.992L34.7462 23.6992L34.7546 23.7074L35.4534 22.992ZM44.5414 18.864L45.4089 19.3613L46.2673 17.864H44.5414V18.864ZM38.1574 30V31H38.7368L39.0249 30.4973L38.1574 30ZM36.3654 30L35.4978 29.5027L34.6394 31H36.3654V30ZM42.7494 18.864V17.864H42.17L41.8818 18.3667L42.7494 18.864ZM37.9494 22.224L37.1581 21.6125L37.1539 21.618L37.9494 22.224ZM41.9654 25.872L42.6639 26.5876L42.6641 26.5874L41.9654 25.872ZM45.4534 25.872L44.7463 26.5791L44.7547 26.5875L44.7633 26.5957L45.4534 25.872ZM45.4534 29.536L44.7546 28.8206L44.7463 28.8289L45.4534 29.536ZM41.9654 29.536L41.2582 30.2432L41.2666 30.2514L41.9654 29.536ZM35.7814 21.152C35.7814 20.573 35.9414 20.249 36.1519 20.0436L34.7548 18.6124C34.0693 19.2816 33.7814 20.1737 33.7814 21.152H35.7814ZM36.1521 20.0434C36.4018 19.7995 36.7272 19.656 37.2134 19.656V17.656C36.2702 17.656 35.4222 17.9605 34.7546 18.6126L36.1521 20.0434ZM37.2134 19.656C37.6999 19.656 38.0145 19.7993 38.2503 20.0351L39.6645 18.6209C39.0043 17.9607 38.1562 17.656 37.2134 17.656V19.656ZM38.2673 20.0517C38.4843 20.2587 38.6454 20.5799 38.6454 21.152H40.6454C40.6454 20.1668 40.3478 19.272 39.6474 18.6043L38.2673 20.0517ZM38.6454 21.152C38.6454 21.7232 38.4845 22.056 38.2586 22.2766L39.6561 23.7074C40.3476 23.032 40.6454 22.1381 40.6454 21.152H38.6454ZM38.2503 22.2849C38.0145 22.5207 37.6999 22.664 37.2134 22.664V24.664C38.1562 24.664 39.0043 24.3593 39.6645 23.6991L38.2503 22.2849ZM37.2134 22.664C36.7272 22.664 36.4018 22.5205 36.1521 22.2766L34.7546 23.7074C35.4222 24.3595 36.2702 24.664 37.2134 24.664V22.664ZM36.1605 22.2849C35.9412 22.0656 35.7814 21.73 35.7814 21.152H33.7814C33.7814 22.1314 34.0696 23.0224 34.7463 23.6991L36.1605 22.2849ZM43.6738 18.3667L37.2898 29.5027L39.0249 30.4973L45.4089 19.3613L43.6738 18.3667ZM38.1574 29H36.3654V31H38.1574V29ZM37.2329 30.4973L43.6169 19.3613L41.8818 18.3667L35.4978 29.5027L37.2329 30.4973ZM42.7494 19.864H44.5414V17.864H42.7494V19.864ZM37.2134 18.76C36.6199 18.76 36.0377 18.9825 35.6474 19.5215C35.3005 20.0006 35.2054 20.5972 35.2054 21.152H37.2054C37.2054 20.9771 37.2215 20.8561 37.2405 20.7776C37.2592 20.6998 37.2763 20.6821 37.2673 20.6945C37.254 20.713 37.2258 20.7391 37.1905 20.7554C37.1607 20.7691 37.1598 20.76 37.2134 20.76V18.76ZM35.2054 21.152C35.2054 21.7105 35.2999 22.3091 35.6443 22.7901C36.0328 23.3328 36.6154 23.56 37.2134 23.56V21.56C37.1613 21.56 37.1636 21.5511 37.1945 21.5654C37.2307 21.5823 37.2582 21.6088 37.2705 21.6259C37.2783 21.6368 37.2604 21.6168 37.2411 21.5359C37.2216 21.4545 37.2054 21.3302 37.2054 21.152H35.2054ZM37.2134 23.56C37.797 23.56 38.3574 23.3385 38.7448 22.83L37.1539 21.618C37.1573 21.6136 37.1654 21.6041 37.179 21.5931C37.1928 21.5819 37.2078 21.5728 37.2221 21.5663C37.2518 21.5527 37.2565 21.56 37.2134 21.56V23.56ZM38.7407 22.8354C39.1184 22.3466 39.2214 21.7267 39.2214 21.152H37.2214C37.2214 21.3325 37.204 21.4557 37.1841 21.5341C37.1645 21.6113 37.1473 21.6265 37.1581 21.6126L38.7407 22.8354ZM39.2214 21.152C39.2214 20.5972 39.1263 20.0006 38.7793 19.5215C38.389 18.9825 37.8068 18.76 37.2134 18.76V20.76C37.2669 20.76 37.2661 20.7691 37.2362 20.7554C37.2009 20.7391 37.1728 20.713 37.1594 20.6945C37.1505 20.6821 37.1675 20.6998 37.1863 20.7776C37.2052 20.8561 37.2214 20.9771 37.2214 21.152H39.2214ZM42.2934 27.696C42.2934 27.117 42.4534 26.793 42.6639 26.5876L41.2668 25.1564C40.5813 25.8256 40.2934 26.7177 40.2934 27.696H42.2934ZM42.6641 26.5874C42.9138 26.3435 43.2392 26.2 43.7254 26.2V24.2C42.7822 24.2 41.9342 24.5045 41.2666 25.1566L42.6641 26.5874ZM43.7254 26.2C44.1965 26.2 44.5075 26.3403 44.7463 26.5791L46.1605 25.1649C45.5033 24.5077 44.6623 24.2 43.7254 24.2V26.2ZM44.7633 26.5957C44.9803 26.8027 45.1414 27.1239 45.1414 27.696H47.1414C47.1414 26.7108 46.8438 25.816 46.1435 25.1483L44.7633 26.5957ZM45.1414 27.696C45.1414 28.2672 44.9805 28.6 44.7546 28.8206L46.1521 30.2514C46.8436 29.576 47.1414 28.6821 47.1414 27.696H45.1414ZM44.7463 28.8289C44.5075 29.0677 44.1965 29.208 43.7254 29.208V31.208C44.6623 31.208 45.5033 30.9003 46.1605 30.2431L44.7463 28.8289ZM43.7254 29.208C43.2392 29.208 42.9138 29.0645 42.6641 28.8206L41.2666 30.2514C41.9342 30.9035 42.7822 31.208 43.7254 31.208V29.208ZM42.6725 28.8289C42.4532 28.6096 42.2934 28.274 42.2934 27.696H40.2934C40.2934 28.6754 40.5816 29.5664 41.2583 30.2431L42.6725 28.8289ZM43.7094 25.304C43.1159 25.304 42.5337 25.5265 42.1434 26.0655C41.7965 26.5446 41.7014 27.1412 41.7014 27.696H43.7014C43.7014 27.5211 43.7175 27.4001 43.7365 27.3216C43.7552 27.2438 43.7723 27.2261 43.7633 27.2385C43.75 27.257 43.7218 27.2831 43.6865 27.2994C43.6567 27.3131 43.6558 27.304 43.7094 27.304V25.304ZM41.7014 27.696C41.7014 28.2508 41.7965 28.8474 42.1434 29.3265C42.5337 29.8655 43.1159 30.088 43.7094 30.088V28.088C43.6558 28.088 43.6567 28.0789 43.6865 28.0926C43.7218 28.1089 43.75 28.135 43.7633 28.1535C43.7723 28.1659 43.7552 28.1482 43.7365 28.0704C43.7175 27.9919 43.7014 27.8709 43.7014 27.696H41.7014ZM43.7094 30.088C44.3028 30.088 44.885 29.8655 45.2753 29.3265C45.6223 28.8474 45.7174 28.2508 45.7174 27.696H43.7174C43.7174 27.8709 43.7012 27.9919 43.6823 28.0704C43.6635 28.1482 43.6465 28.1659 43.6554 28.1535C43.6688 28.135 43.6969 28.1089 43.7322 28.0926C43.7621 28.0789 43.7629 28.088 43.7094 28.088V30.088ZM45.7174 27.696C45.7174 27.1412 45.6223 26.5446 45.2753 26.0655C44.885 25.5265 44.3028 25.304 43.7094 25.304V27.304C43.7629 27.304 43.7621 27.3131 43.7322 27.2994C43.6969 27.2831 43.6688 27.257 43.6554 27.2385C43.6465 27.2261 43.6635 27.2438 43.6823 27.3216C43.7012 27.4001 43.7174 27.5211 43.7174 27.696H45.7174Z" fill="black" mask="url(#path-2-outside-1_117_424)"/>
</g>
<defs>
<filter id="filter0_d_117_424" x="1.39197" y="17.064" width="49.7494" height="22.144" filterUnits="userSpaceOnUse" color-interpolation-filters="sRGB">
<feFlood flood-opacity="0" result="BackgroundImageFix"/>
<feColorMatrix in="SourceAlpha" type="matrix" values="0 0 0 0 0 0 0 0 0 0 0 0 0 0 0 0 0 0 127 0" result="hardAlpha"/>
<feOffset dy="4"/>
<feGaussianBlur stdDeviation="2"/>
<feComposite in2="hardAlpha" operator="out"/>
<feColorMatrix type="matrix" values="0 0 0 0 0 0 0 0 0 0 0 0 0 0 0 0 0 0 0.25 0"/>
<feBlend mode="normal" in2="BackgroundImageFix" result="effect1_dropShadow_117_424"/>
<feBlend mode="normal" in="SourceGraphic" in2="effect1_dropShadow_117_424" result="shape"/>
</filter>
</defs>
</svg>
